<?xml version="1.0" encoding="UTF-8"?>
<svg width="26px" height="26px" viewBox="0 0 26 26" version="1.1" xmlns="http://www.w3.org/2000/svg" xmlns:xlink="http://www.w3.org/1999/xlink">
    <!-- Generator: Sketch 51.2 (57519) - http://www.bohemiancoding.com/sketch -->
    <title>Group</title>
    <desc>Created with Sketch.</desc>
    <defs></defs>
    <g id="Page-1" stroke="none" stroke-width="1" fill="none" fill-rule="evenodd">
        <g id="Desktop-HD" transform="translate(-53.000000, -16.000000)">
            <g id="Group" transform="translate(55.000000, 18.000000)">
                <path d="M5.03153416,-0.6 L22.7684658,-0.6 L16.9684658,22.6 L-0.768465844,22.6 L5.03153416,-0.6 Z" id="Rectangle" stroke="#FFFFFF" stroke-width="1.2" fill="#FFFFFF"></path>
                <path d="M8.25,7.01666667 C7.91862915,7.01666667 7.65,6.74803752 7.65,6.41666667 C7.65,6.08529582 7.91862915,5.81666667 8.25,5.81666667 L16.1944444,5.81666667 C16.5258153,5.81666667 16.7944444,6.08529582 16.7944444,6.41666667 C16.7944444,6.74803752 16.5258153,7.01666667 16.1944444,7.01666667 L8.25,7.01666667 Z M7.02777778,10.6833333 C6.69640693,10.6833333 6.42777778,10.4147042 6.42777778,10.0833333 C6.42777778,9.75196248 6.69640693,9.48333333 7.02777778,9.48333333 L14.9722222,9.48333333 C15.3035931,9.48333333 15.5722222,9.75196248 15.5722222,10.0833333 C15.5722222,10.4147042 15.3035931,10.6833333 14.9722222,10.6833333 L7.02777778,10.6833333 Z M5.80555556,14.35 C5.47418471,14.35 5.20555556,14.0813708 5.20555556,13.75 C5.20555556,13.4186292 5.47418471,13.15 5.80555556,13.15 L13.75,13.15 C14.0813708,13.15 14.35,13.4186292 14.35,13.75 C14.35,14.0813708 14.0813708,14.35 13.75,14.35 L5.80555556,14.35 Z" id="Combined-Shape" stroke="#080A0D" stroke-width="1.2" stroke-linecap="round" stroke-linejoin="round"></path>
                <path d="M9.18920942,18.0277778 L12.445225,18.0277778 L9.18920942,18.0277778 Z" id="Line" stroke="#080A0D" stroke-width="2.2" stroke-linecap="round" stroke-linejoin="round"></path>
            </g>
        </g>
    </g>
</svg>